<svg viewBox="0 0 320 220" xmlns="http://www.w3.org/2000/svg">
  <defs>
    <linearGradient id="bg3" x1="0%" y1="0%" x2="100%" y2="100%">
      <stop offset="0%" stop-color="#fff8f0"/>
      <stop offset="100%" stop-color="#f0f7ff"/>
    </linearGradient>
    <filter id="s4" x="-20%" y="-20%" width="140%" height="140%">
      <feDropShadow dx="0" dy="2" stdDeviation="3" flood-color="#ff990015"/>
    </filter>
    <pattern id="grid3" width="24" height="24" patternUnits="userSpaceOnUse">
      <path d="M 24 0 L 0 0 0 24" fill="none" stroke="#ff990010" stroke-width="1"/>
    </pattern>
  </defs>
  <rect width="320" height="220" fill="url(#bg3)"/>
  <rect width="320" height="220" fill="url(#grid3)"/>
  <rect x="14" y="18" width="292" height="162" rx="10" fill="none" stroke="#ff990035" stroke-width="1.5" stroke-dasharray="5,3"/>
  <rect x="14" y="18" width="56" height="16" rx="3" fill="#ff9900" opacity="0.12"/>
  <text x="22" y="29" fill="#d97706" font-size="8" font-weight="700">AWS</text>
  <rect x="104" y="34" width="112" height="30" rx="7" fill="white" stroke="#ff9900" stroke-width="2" filter="url(#s4)"/>
  <text x="160" y="47" text-anchor="middle" fill="#d97706" font-size="9" font-weight="600">Load Balancer</text>
  <text x="160" y="57" text-anchor="middle" fill="#9ca3af" font-size="7">ELB</text>
  <rect x="42" y="80" width="236" height="70" rx="8" fill="#06b6d408" stroke="#06b6d4" stroke-width="1.2" stroke-dasharray="4,3"/>
  <text x="57" y="92" fill="#0891b2" font-size="7.5" font-weight="600">EKS Cluster</text>
  <rect x="54" y="96" width="58" height="46" rx="6" fill="white" stroke="#8b5cf6" stroke-width="1.8" filter="url(#s4)"/>
  <text x="83" y="113" text-anchor="middle" fill="#7c3aed" font-size="8" font-weight="500">Auth</text>
  <text x="83" y="124" text-anchor="middle" fill="#7c3aed" font-size="8">Service</text>
  <circle cx="83" cy="134" r="3.5" fill="#10b981"><animate attributeName="opacity" values="1;0.2;1" dur="2s" repeatCount="indefinite"/></circle>
  <rect x="131" y="96" width="58" height="46" rx="6" fill="white" stroke="#06b6d4" stroke-width="1.8" filter="url(#s4)"/>
  <text x="160" y="113" text-anchor="middle" fill="#0891b2" font-size="8" font-weight="500">API</text>
  <text x="160" y="124" text-anchor="middle" fill="#0891b2" font-size="8">Service</text>
  <circle cx="160" cy="134" r="3.5" fill="#10b981"><animate attributeName="opacity" values="1;0.2;1" dur="1.5s" repeatCount="indefinite"/></circle>
  <rect x="208" y="96" width="58" height="46" rx="6" fill="white" stroke="#10b981" stroke-width="1.8" filter="url(#s4)"/>
  <text x="237" y="113" text-anchor="middle" fill="#059669" font-size="8" font-weight="500">Worker</text>
  <text x="237" y="124" text-anchor="middle" fill="#059669" font-size="8">Service</text>
  <circle cx="237" cy="134" r="3.5" fill="#10b981"><animate attributeName="opacity" values="1;0.2;1" dur="2.5s" repeatCount="indefinite"/></circle>
  <path d="M140 64 L90 96" stroke="#ff990040" stroke-width="1.5" stroke-dasharray="3,2"><animate attributeName="stroke-dashoffset" from="0" to="-10" dur="1s" repeatCount="indefinite"/></path>
  <path d="M160 64 L160 96" stroke="#ff990040" stroke-width="1.5" stroke-dasharray="3,2"><animate attributeName="stroke-dashoffset" from="0" to="-10" dur="1s" repeatCount="indefinite"/></path>
  <path d="M180 64 L230 96" stroke="#ff990040" stroke-width="1.5" stroke-dasharray="3,2"><animate attributeName="stroke-dashoffset" from="0" to="-10" dur="1s" repeatCount="indefinite"/></path>
  <rect x="18" y="162" width="60" height="18" rx="4" fill="#7c3aed12" stroke="#8b5cf6" stroke-width="1"/>
  <text x="48" y="174" text-anchor="middle" fill="#7c3aed" font-size="8" font-weight="500">Terraform</text>
  <rect x="85" y="162" width="60" height="18" rx="4" fill="#f59e0b12" stroke="#f59e0b" stroke-width="1"/>
  <text x="115" y="174" text-anchor="middle" fill="#d97706" font-size="8" font-weight="500">Prometheus</text>
  <rect x="152" y="162" width="55" height="18" rx="4" fill="#06b6d412" stroke="#06b6d4" stroke-width="1"/>
  <text x="179" y="174" text-anchor="middle" fill="#0891b2" font-size="8" font-weight="500">Grafana</text>
  <rect x="214" y="162" width="92" height="18" rx="4" fill="#ef444412" stroke="#ef4444" stroke-width="1"/>
  <text x="260" y="174" text-anchor="middle" fill="#dc2626" font-size="8" font-weight="500">Datadog / CloudWatch</text>
</svg>
